<svg version="1.1" xmlns="http://www.w3.org/2000/svg" xmlns:xlink="http://www.w3.org/1999/xlink" x="0px" y="0px" width="16.253px" height="27.101px" viewBox="1271.357 1026.835 16.253 27.101" xml:space="preserve">
    <path fill="#66ff66" stroke="#000000" stroke-width="0.5272" stroke-miterlimit="10" d="M1279.502,1051.88
        c-0.554-2.711-1.525-4.969-2.702-7.061c-0.877-1.551-1.891-2.983-2.828-4.488c-0.314-0.502-0.585-1.031-0.885-1.554
        c-0.602-1.04-1.089-2.25-1.058-3.817c0.03-1.532,0.473-2.762,1.11-3.765c1.052-1.651,2.813-3.006,5.171-3.362
        c1.932-0.291,3.741,0.2,5.023,0.95c1.05,0.614,1.862,1.432,2.48,2.396c0.643,1.008,1.088,2.198,1.124,3.751
        c0.02,0.797-0.111,1.534-0.295,2.145c-0.184,0.619-0.484,1.137-0.749,1.69c-0.521,1.076-1.169,2.064-1.82,3.056
        C1282.129,1044.762,1280.301,1047.765,1279.502,1051.88z"/>
    <circle cx="1279.482" cy="1034.686" r="2.749"/>
</svg>